{
	"asset":{
		"generator":"Khronos glTF Blender I/O v5.0.21",
		"version":"2.0"
	},
	"scene":0,
	"scenes":[
		{
			"name":"Scene",
			"nodes":[
				1,
				3,
				5
			]
		}
	],
	"nodes":[
		{
			"mesh":0,
			"name":"Object_4"
		},
		{
			"children":[
				0
			],
			"name":"Circle.000_2",
			"rotation":[
				0.7071068286895752,
				0,
				0,
				0.7071068286895752
			],
			"scale":[
				0.5736483335494995,
				0.5736483335494995,
				0.5736483335494995
			],
			"translation":[
				-0.004480421543121338,
				-0.009666911326348782,
				-0.3780496120452881
			]
		},
		{
			"mesh":1,
			"name":"Object_6"
		},
		{
			"children":[
				2
			],
			"name":"Circle.001_3",
			"rotation":[
				0.7071068286895752,
				0,
				0,
				0.7071068286895752
			],
			"scale":[
				0.5736483335494995,
				0.5736483335494995,
				0.5736483335494995
			],
			"translation":[
				-0.004480421543121338,
				-0.009666911326348782,
				-0.3780496120452881
			]
		},
		{
			"mesh":2,
			"name":"Object_14"
		},
		{
			"children":[
				4
			],
			"name":"Circle.006_7",
			"rotation":[
				0.7071068286895752,
				0,
				0,
				0.7071068286895752
			],
			"scale":[
				0.5736483335494995,
				0.5736483335494995,
				0.5736483335494995
			],
			"translation":[
				-0.004480421543121338,
				-0.009666911326348782,
				-0.3780496120452881
			]
		}
	],
	"materials":[
		{
			"doubleSided":true,
			"name":"Material.004",
			"pbrMetallicRoughness":{
				"baseColorFactor":[
					0.887923002243042,
					0.5028859972953796,
					0.04373510181903839,
					1
				],
				"metallicFactor":0.6583687663078308,
				"roughnessFactor":0.20235575735569
			}
		},
		{
			"doubleSided":true,
			"name":"Material.005",
			"pbrMetallicRoughness":{
				"baseColorFactor":[
					0.887923002243042,
					0.5028859972953796,
					0.04373510181903839,
					1
				],
				"metallicFactor":0,
				"roughnessFactor":0.5
			}
		},
		{
			"doubleSided":true,
			"name":"Material.001",
			"pbrMetallicRoughness":{
				"baseColorFactor":[
					0.8879231214523315,
					0.5028864741325378,
					0.04373503103852272,
					1
				]
			}
		}
	],
	"meshes":[
		{
			"name":"Object_0",
			"primitives":[
				{
					"attributes":{
						"POSITION":0,
						"NORMAL":1
					},
					"indices":2,
					"material":0
				}
			]
		},
		{
			"name":"Object_1",
			"primitives":[
				{
					"attributes":{
						"POSITION":3,
						"NORMAL":4
					},
					"indices":5,
					"material":1
				}
			]
		},
		{
			"name":"Object_5",
			"primitives":[
				{
					"attributes":{
						"POSITION":6,
						"NORMAL":7
					},
					"indices":8,
					"material":2
				}
			]
		}
	],
	"accessors":[
		{
			"bufferView":0,
			"componentType":5126,
			"count":12437,
			"max":[
				1.0038751363754272,
				0.07124173641204834,
				1.0036600828170776
			],
			"min":[
				-1.0038866996765137,
				-0.07124826312065125,
				-1.0036612749099731
			],
			"type":"VEC3"
		},
		{
			"bufferView":1,
			"componentType":5126,
			"count":12437,
			"type":"VEC3"
		},
		{
			"bufferView":2,
			"componentType":5123,
			"count":70188,
			"type":"SCALAR"
		},
		{
			"bufferView":3,
			"componentType":5126,
			"count":18861,
			"max":[
				0.9646363854408264,
				0.07124010473489761,
				0.9252863526344299
			],
			"min":[
				-0.9252881407737732,
				0.06390748918056488,
				-0.9250985980033875
			],
			"type":"VEC3"
		},
		{
			"bufferView":4,
			"componentType":5126,
			"count":18861,
			"type":"VEC3"
		},
		{
			"bufferView":5,
			"componentType":5123,
			"count":111108,
			"type":"SCALAR"
		},
		{
			"bufferView":6,
			"componentType":5126,
			"count":17100,
			"max":[
				0.9535210728645325,
				-0.06391722708940506,
				0.9554123878479004
			],
			"min":[
				-0.9489993453025818,
				-0.0675889104604721,
				-0.953361988067627
			],
			"type":"VEC3"
		},
		{
			"bufferView":7,
			"componentType":5126,
			"count":17100,
			"type":"VEC3"
		},
		{
			"bufferView":8,
			"componentType":5123,
			"count":93528,
			"type":"SCALAR"
		}
	],
	"bufferViews":[
		{
			"buffer":0,
			"byteLength":149244,
			"byteOffset":0,
			"target":34962
		},
		{
			"buffer":0,
			"byteLength":149244,
			"byteOffset":149244,
			"target":34962
		},
		{
			"buffer":0,
			"byteLength":140376,
			"byteOffset":298488,
			"target":34963
		},
		{
			"buffer":0,
			"byteLength":226332,
			"byteOffset":438864,
			"target":34962
		},
		{
			"buffer":0,
			"byteLength":226332,
			"byteOffset":665196,
			"target":34962
		},
		{
			"buffer":0,
			"byteLength":222216,
			"byteOffset":891528,
			"target":34963
		},
		{
			"buffer":0,
			"byteLength":205200,
			"byteOffset":1113744,
			"target":34962
		},
		{
			"buffer":0,
			"byteLength":205200,
			"byteOffset":1318944,
			"target":34962
		},
		{
			"buffer":0,
			"byteLength":187056,
			"byteOffset":1524144,
			"target":34963
		}
	],
	"buffers":[
		{
			"byteLength":1711200,
			"uri":"Coin.bin"
		}
	]
}
