{
	"asset":{
		"generator":"Khronos glTF Blender I/O v5.0.21",
		"version":"2.0"
	},
	"scene":0,
	"scenes":[
		{
			"name":"Scene",
			"nodes":[
				6
			]
		}
	],
	"nodes":[
		{
			"mesh":0,
			"name":"Buffer Layer"
		},
		{
			"mesh":1,
			"name":"Buffer Layer.001"
		},
		{
			"children":[
				0,
				1
			],
			"name":"Cube_0",
			"translation":[
				0,
				0,
				0.0005963444709777832
			]
		},
		{
			"children":[
				2
			],
			"name":"GLTF_SceneRootNode",
			"rotation":[
				0.70710688829422,
				0,
				0,
				0.7071066498756409
			]
		},
		{
			"children":[
				3
			],
			"name":"root"
		},
		{
			"children":[
				4
			],
			"name":"RootNode (model correction matrix)",
			"translation":[
				0,
				0.15583719313144684,
				-0.001777983852662146
			]
		},
		{
			"children":[
				5
			],
			"name":"Piggy Bank",
			"rotation":[
				-0.70710688829422,
				0,
				0,
				0.7071066498756409
			],
			"scale":[
				1.434320092201233,
				1.4343202114105225,
				1.4343202114105225
			]
		}
	],
	"materials":[
		{
			"alphaMode":"BLEND",
			"doubleSided":true,
			"name":"Material 2.002",
			"pbrMetallicRoughness":{
				"baseColorFactor":[
					1,
					0.632042646408081,
					0.632042646408081,
					0.4616996943950653
				],
				"roughnessFactor":0.12366615980863571
			}
		},
		{
			"doubleSided":true,
			"name":"Material 1.002",
			"pbrMetallicRoughness":{
				"baseColorFactor":[
					0.04632429778575897,
					0.04632429778575897,
					0.04632429778575897,
					1
				],
				"roughnessFactor":0.2705624997615814
			}
		}
	],
	"meshes":[
		{
			"name":"Mesh_0.002",
			"primitives":[
				{
					"attributes":{
						"POSITION":0,
						"NORMAL":1,
						"TEXCOORD_0":2
					},
					"indices":3,
					"material":0
				}
			]
		},
		{
			"name":"Mesh_1.002",
			"primitives":[
				{
					"attributes":{
						"POSITION":4,
						"NORMAL":5,
						"TEXCOORD_0":6
					},
					"indices":7,
					"material":1
				}
			]
		}
	],
	"accessors":[
		{
			"bufferView":0,
			"componentType":5126,
			"count":17698,
			"max":[
				1.3664692640304565,
				2.8426129817962646,
				1.756805181503296
			],
			"min":[
				-1.3664692640304565,
				0.001777983969077468,
				-1.4463235139846802
			],
			"type":"VEC3"
		},
		{
			"bufferView":1,
			"componentType":5126,
			"count":17698,
			"type":"VEC3"
		},
		{
			"bufferView":2,
			"componentType":5126,
			"count":17698,
			"type":"VEC2"
		},
		{
			"bufferView":3,
			"componentType":5123,
			"count":90624,
			"type":"SCALAR"
		},
		{
			"bufferView":4,
			"componentType":5126,
			"count":2424,
			"max":[
				0.4752610921859741,
				1.9738754034042358,
				1.731637954711914
			],
			"min":[
				-0.47526100277900696,
				1.4326072931289673,
				1.3426762819290161
			],
			"type":"VEC3"
		},
		{
			"bufferView":5,
			"componentType":5126,
			"count":2424,
			"type":"VEC3"
		},
		{
			"bufferView":6,
			"componentType":5126,
			"count":2424,
			"type":"VEC2"
		},
		{
			"bufferView":7,
			"componentType":5123,
			"count":10752,
			"type":"SCALAR"
		}
	],
	"bufferViews":[
		{
			"buffer":0,
			"byteLength":212376,
			"byteOffset":0,
			"target":34962
		},
		{
			"buffer":0,
			"byteLength":212376,
			"byteOffset":212376,
			"target":34962
		},
		{
			"buffer":0,
			"byteLength":141584,
			"byteOffset":424752,
			"target":34962
		},
		{
			"buffer":0,
			"byteLength":181248,
			"byteOffset":566336,
			"target":34963
		},
		{
			"buffer":0,
			"byteLength":29088,
			"byteOffset":747584,
			"target":34962
		},
		{
			"buffer":0,
			"byteLength":29088,
			"byteOffset":776672,
			"target":34962
		},
		{
			"buffer":0,
			"byteLength":19392,
			"byteOffset":805760,
			"target":34962
		},
		{
			"buffer":0,
			"byteLength":21504,
			"byteOffset":825152,
			"target":34963
		}
	],
	"buffers":[
		{
			"byteLength":846656,
			"uri":"Pig.bin"
		}
	]
}
